<svg width="720" height="719" viewBox="0 0 720 719" fill="none" xmlns="http://www.w3.org/2000/svg">
<path d="M350.176 18.3008C538.521 13.4547 695.091 162.297 699.795 350.658C704.496 539.018 555.546 695.488 367.195 700.049C179.048 704.602 22.7945 555.838 18.0972 367.68C13.3999 179.521 162.036 23.1419 350.176 18.3008Z" stroke="#BA9477"/>
<path d="M404.947 134.507C410.453 122.044 419.628 109.786 431.223 102.43C431.93 103.248 432.091 103.504 432.974 104.155C414.446 128.39 411.715 146.812 420.968 175.025C425.099 187.615 419.91 201.32 412.042 211.714C405.678 220.157 398.71 228.125 391.191 235.557C378.165 248.542 358.748 260.451 361.417 281.563C362.805 292.582 372.438 300.17 381.702 304.776C383.741 301.151 385.53 297.936 387.837 294.467C387.953 298.255 388.139 307.339 389.018 310.567C391.528 319.777 401.906 340.592 407.296 348.037C438.419 340.673 450.721 314.391 441.415 284.809C439.622 279.108 436.813 270.032 437.069 264.037L436.096 256.478L439.267 262.982C440.395 264.34 443.334 270.518 444.241 272.387C446.903 277.865 449.378 283.097 452.338 288.441L456.356 288.101C458.511 277.661 461.285 267.072 462.8 256.54C463.525 251.508 463.447 245.823 463.795 240.692C464.203 234.292 465.166 227.941 466.675 221.708C471.396 201.326 479.443 181.537 484.833 161.287C485.047 160.486 485.504 159.507 486.228 159.055C487.656 160.71 487.199 182.466 487.199 186.675C499.008 184.365 510.68 180.409 522.446 177.774C525.688 177.048 530.828 175.54 533.992 175.168C536.727 174.37 541.867 172.56 544.451 173.17L544.5 173.7C542.359 175.557 539.469 176.43 536.804 177.46C531.918 179.934 521.93 184.312 516.966 185.98C502.024 190.999 489.248 196.742 484.059 213.145C480.828 225.093 481.918 238.121 481.205 250.397C480.959 254.628 480.783 258.948 480.79 263.132C480.797 266.948 482.182 270.749 486.38 271.243C495.903 272.362 505.905 270.12 513.714 264.481C517.391 261.845 520.566 258.565 523.076 254.8C526.212 250.169 537.353 225.172 539.511 224.048C540.485 225.357 538.66 240.713 538.502 243.225C554.122 230.593 562.883 225.912 582.926 226.107C569.046 229.865 550.905 244.508 542.725 256.238C549.091 256.69 555.926 257.143 562.31 257.184C557.676 259.462 554.78 260.648 549.949 262.083C546.933 262.98 538.337 264.821 536.249 266.428C528.546 272.363 525.505 277.788 516.009 281.97C511.038 284.165 505.814 285.739 500.46 286.656C495.323 287.556 489.255 287.935 484.386 289.089C474.455 291.445 467.005 300.794 464.178 310.202C460.944 320.429 457.481 330.562 454.11 340.736C453.857 341.493 454.015 342.218 454.292 342.932C455.491 344.23 456.813 344.3 458.582 344.666C462.832 343.181 466.984 338.298 471.368 335.658C469.673 338.819 468.053 342.018 466.502 345.251C494.536 364.134 514.012 347.114 529.762 323.073C532.529 318.78 535.247 314.456 537.915 310.102C548.184 293.608 553.032 290.016 572.741 290.05C588.322 290.077 601.446 288.912 615.013 280.622C606.846 291.624 602.258 293.935 588.558 296.615C577.452 298.786 558.158 297.948 551.268 307.781C549.387 310.465 548.842 312.693 548.065 315.718C558.808 315.685 569.552 315.778 580.292 316L581.115 317.17C575.427 319.025 571.697 319.852 565.812 320.833C557.972 322.138 548.662 320.072 542.942 326.737C540.091 330.056 537.521 335.913 535.159 339.774C560.559 350.013 584.357 360.579 612.766 353.509L613.962 354.209C604.983 357.914 601.207 359.096 591.637 360.885C586.564 361.831 571.264 361.532 569.377 362.404C569.693 364.594 573.648 365.909 575.226 367.26C584.483 371.556 592.418 376.007 601.973 379.839C591.964 378.721 583.316 373.602 573.803 369.763C571.433 369.116 566.473 366.848 564.1 365.751C548.139 358.364 538.066 351.867 520.007 356.645L519.936 361.515C521.406 362.33 525.217 364.398 526.243 365.435C532.842 372.104 532.902 375.684 540.728 382.192C549.963 389.87 560.088 391.748 568.452 397.876C559.768 397.697 552.326 396.958 543.772 396.48C553.999 414.126 563.987 419.671 583.225 426.58C587.809 428.225 593.075 430.166 597.741 431.47C596.457 432.202 596.317 431.97 595.114 432.42C571.3 433.601 554.625 424.41 539.979 406.251C540.151 414.021 539.645 422.572 540.351 430.25C538.063 425.029 536.069 420.29 534.101 414.763C529.341 401.395 528.409 381.636 514.192 374.594C508.138 371.595 502.404 371.908 496.276 374.056C497.355 378.138 502.608 397.858 501.244 400.58C499.598 400.418 493.903 389.719 492.433 387.501C491.157 385.588 489.772 383.746 488.285 381.988C471.312 361.943 445.598 362.692 423.102 373.549C396.074 386.597 390.108 409.014 381.512 435.035C376.966 415.536 360.939 402.422 345.985 390.732C360.513 383.429 367.059 377.603 372.273 361.775C383.041 329.131 345.353 311.304 337.819 284.21C334.696 264.956 353.935 247.587 357.63 229.599C360.78 214.286 353.802 204.385 341.719 196.154C337.392 193.207 332.367 190.22 328.574 186.545L328.292 186.268C329.649 185.547 329.487 185.173 329.62 183.756L333.679 185.547C328.386 174.311 322.692 164.458 323.196 151.599C323.494 144.822 325.495 137.569 327.158 131.018C327.815 128.432 329.207 113.09 330.058 112.293C330.756 114.043 330.834 116.661 331.18 118.536C332.856 127.628 332.147 136.037 332.07 145.119C331.976 156.245 336.716 167.95 344.609 175.8C347.981 179.154 352.642 182.782 356.245 186.356C370.445 200.442 374.136 208.145 374.474 227.457C399.382 220.17 387.83 203.243 384.975 185.17C389.443 191.722 394.85 194.698 400.292 200.27C404.543 192.312 406.986 190.714 407.661 180.96C409.454 154.994 393.367 135.638 377.283 117.2C383.066 119.175 398.661 130.51 404.947 134.507Z" fill="#AF866A"/>
<path d="M575.227 367.26C584.483 371.556 592.418 376.007 601.973 379.839C591.964 378.721 583.316 373.602 573.803 369.763L574.003 369.257C577.336 369.756 580.377 372.442 582.616 371.886L582.578 371.63C580.648 370.684 576.647 368.884 575.086 367.801L575.227 367.26Z" fill="#7E5231"/>
<path d="M533.992 175.168C536.727 174.37 541.867 172.56 544.451 173.17L544.5 173.7C542.359 175.557 539.469 176.43 536.804 177.461C536.224 177.356 536.551 177.454 535.855 177.084C537.036 176.537 537.834 176.164 538.949 175.503L538.833 175.036C536.966 174.617 536.069 175.847 533.992 175.168Z" fill="#7E5231"/>
<path d="M436.096 256.478L439.267 262.982L438.676 263.183L438.226 262.456L437.692 264.072C437.484 264.069 437.259 264.117 437.07 264.037L436.096 256.478Z" fill="#916F49"/>
<path d="M236.23 112.625C248.64 113.954 259.54 119.55 262.132 132.823C262.73 135.886 262.921 138.989 263.364 142.086C261.96 142.477 261.615 142.431 260.832 143.559C269.462 155.848 284.286 166.767 284.819 183.256C285.065 190.881 284.273 197.653 287.081 205.065C289.921 212.565 296.742 217.234 299.81 224.332C306.149 238.999 309.837 257.739 315.443 272.164C318.798 266.239 323.936 260.25 327.799 253.668C326.606 263.02 322.516 267.7 321.736 278.649C320.53 295.572 326.012 305.834 326.643 322.115C327.097 329.714 326.397 337.679 325.248 345.039C323.665 355.186 315.405 370.666 323.774 379.65C334.119 390.756 349.395 399.592 360.668 410.013C381.786 429.537 379.448 456.141 370.16 480.886C355.989 520.774 328.777 553.345 291.126 572.756C291.376 571.804 291.414 571.733 291.435 570.759L290.332 570.049C301.843 558.134 310.057 551.457 319.072 536.49C335.499 509.221 337.147 476.537 329.661 446.212C324.568 425.578 308.408 401.272 289.944 390.475C278.172 383.735 264.345 381.52 251.058 384.248C243.489 385.778 239.694 387.441 231.673 387.008C221.015 386.428 213.653 379.653 202.69 382.74C188.623 386.695 184.145 402.443 177.841 413.926C174.37 420.251 170.862 426.436 167.316 432.676C168.473 425.198 169.759 417.055 171.197 409.654C167.658 411.925 158.63 416.573 154.799 418.405C140.104 425.433 127.749 426.71 112.333 421.359L112.49 419.917C115.954 419.625 119.416 419.312 122.876 418.978C142.417 417.009 156.957 413.297 169.848 397.51C164.938 397.071 156.346 395.351 151.231 394.487L151.481 393.703C154.996 392.827 160.935 391.523 164.089 390.239C175.935 385.409 189.096 375.314 199.17 367.231C184.22 354.69 171.862 361.852 157.229 370.034C152.582 372.635 147.843 375.075 143.021 377.34C140.186 378.816 137.873 380.015 134.903 381.246C137.286 378.236 138.98 376.629 141.905 374.196C144.069 370.969 147.817 370.705 150.487 364.092C145.999 363.923 139.894 364.144 135.559 363.649C122.848 362.193 110.478 356.409 102.34 346.403C100.778 345.385 96.9114 340.24 95.804 338.549C98.6579 340.35 100.956 342.085 104.005 343.905C106.354 344.78 110.758 347.554 113.547 348.694C131.574 356.061 139.273 357.295 157.609 352.282C155.072 350.574 142.237 340.92 141.228 338.81L141.696 338.315C147.564 338.201 158.921 345.334 166.181 346.751C176.553 348.777 185.339 345.677 195.071 348.719C201.931 350.863 206.641 355.812 212.579 359.307C229.063 369 248.785 365.312 266.289 360.495C264.31 349.838 262.172 336.936 258.886 326.856C256.405 320.191 252.997 309.954 245.74 307.085C237.263 303.734 227.161 300.668 218.226 299.455C187.253 295.25 179.301 321.116 146.619 305.417C148.237 305.158 146.993 304.684 148.087 302.887C169.343 305.6 185.461 297.294 204.929 289.492C204.318 286.992 203.386 284.583 202.153 282.325C196.532 272.19 185.026 266.815 174.339 263.732L175.615 262.597C181.156 262.498 186.697 262.365 192.236 262.196C184.839 250.877 174.179 238.361 160.742 234.902C154.227 233.225 147.626 232.202 141.126 230.248C129.504 245.304 121.516 245.375 103.928 241.33C113.151 226.121 118.39 221.379 136.992 224.084C163.749 227.974 178.179 226.924 195.642 249.556C194.625 244.52 194.046 238.029 193.962 232.879C204.648 245.425 199.768 244.773 204.442 259.888C210.342 278.966 225.409 289.844 245.217 290.926C248.888 291.127 252.654 291.311 256.376 291.442C258.02 288.496 264.461 278.057 266.591 275.653C267.484 276.525 267.461 276.477 268.595 277.032L269.03 276.959C267.649 282.727 267.304 287.408 267.988 293.319C268.772 300.41 272.966 306.453 274.69 313.224C278.415 327.853 280.097 343.372 287.91 356.631C289.534 359.384 291.402 361.835 292.896 364.661L293.091 365.037C296.125 358.762 299.911 350.631 302.073 344.09C306.992 329.212 306.746 311.069 304.003 295.656C302.875 289.313 297.069 263.571 293.657 258.831C290.319 254.194 263.773 241.138 257.33 238.389C253.677 236.831 246.225 234.431 242.073 233.301C239.865 232.7 236.949 232.117 234.687 231.696C232.837 231.351 227.202 231.596 226.134 230.853C227.056 230.189 234.062 229.644 235.726 229.372C256.189 226.026 272.705 232.85 290.9 240.872C287.618 203.534 232.798 213.909 217.593 182.895C214.948 177.5 203.438 148.657 204.73 144.052L205.216 143.954C207.115 146.336 209.507 151.295 211.155 154.089C226.504 180.113 243.747 199.748 275.826 202.881C280.094 182.72 271.32 171.694 263.628 154.353C259.169 144.3 264.337 145.734 252.849 141.248C240.677 136.494 236.466 125.811 236.23 112.625Z" fill="#C49E7F"/>
<path d="M249.679 127.087C252.389 129.742 257.259 134.946 258.934 138.266C258.771 138.719 258.738 138.878 258.504 139.298C257.569 139.609 257.825 139.317 257.459 139.972C255.062 137.491 251.139 130.262 249.679 127.087Z" fill="#E7CEB2"/>
<path d="M102.34 346.403C100.778 345.385 96.9114 340.24 95.804 338.549C98.6579 340.35 100.956 342.085 104.005 343.905L103.566 344.444C102.229 343.965 101.299 343.555 100.01 342.953C100.649 343.573 102.882 345.54 102.915 346.283L102.34 346.403Z" fill="#C8A486"/>
<path d="M134.903 381.246C137.286 378.236 138.98 376.63 141.905 374.197L142.146 374.872C140.559 376.549 140.562 375.733 139.694 377.85L139.681 377.329L139.473 377.902C140.383 377.593 141.14 377.336 142.033 376.957L143.021 377.34C140.186 378.816 137.873 380.015 134.903 381.246Z" fill="#C8A486"/>
<path d="M257.459 139.972C257.825 139.317 257.569 139.609 258.503 139.298C258.738 138.878 258.771 138.719 258.934 138.266C260.171 139.906 261.199 141.942 263.363 142.086C261.96 142.477 261.615 142.431 260.832 143.559C259.538 142.599 258.51 141.221 257.459 139.972Z" fill="#E1C9B7"/>
<path d="M133.808 228.967C135.029 228.793 135.004 228.794 136.227 228.96L136.566 229.459C135.25 231.253 130.823 232.023 128.706 232.49C127.414 232.824 127.165 232.906 125.852 232.943L125.486 232.589C126.734 230.778 131.651 229.371 133.808 228.967Z" fill="#E7CEB2"/>
<path d="M424.473 155.242C434.816 138.807 446.934 135.96 465.124 140.825C456.996 158.421 442.733 166.087 424.297 157.807C424.167 157.622 423.756 156.845 423.633 156.621C423.784 155.552 423.555 156.021 424.473 155.242Z" fill="#A77F64"/>
<path d="M445.402 150.295C442.1 152.087 434.668 154.726 430.886 155.747C429.817 154.566 429.82 154.385 428.474 154.087C435.052 152.203 438.56 151.034 445.402 150.295Z" fill="#E7CEB2"/>
<path d="M428.474 154.087C429.82 154.385 429.817 154.566 430.886 155.747C429.578 156.127 425.271 157.294 424.297 157.807C424.167 157.622 423.756 156.845 423.633 156.622C423.784 155.552 423.555 156.021 424.473 155.243C425.7 155.22 427.279 154.522 428.474 154.087Z" fill="#E1C9B7"/>
<path d="M558.64 332.143C574.896 323.325 586.709 327.055 599.126 339.595C591.602 344.454 583.436 348.306 574.298 346.314C568.438 345.035 560.728 340.545 557.961 335.083C557.694 333.423 557.466 333.195 558.64 332.143Z" fill="#A77F64"/>
<path d="M557.961 335.084C557.694 333.423 557.466 333.195 558.64 332.143C560.057 332.808 563.713 333.599 565.33 333.947C570.182 334.991 572.889 335.772 577.339 337.812C573.279 337.746 562.574 335.743 558.629 334.552C558.039 334.94 558.228 334.729 557.961 335.084Z" fill="#E1C9B7"/>
<path d="M408.955 111.044C402.947 93.7848 406.649 82.9393 421.042 71.8811C428.917 89.4286 428.825 99.6559 413.047 112.339C411.75 113.049 409.613 112.795 408.955 111.044Z" fill="#A77F64"/>
<path d="M416.893 92.1262C416.278 96.6895 412.021 109.764 412.537 112.01L413.047 112.339C411.75 113.049 409.613 112.795 408.955 111.043C409.866 110.525 409.479 110.978 409.781 110.117C411.557 105.029 414.295 96.6424 416.893 92.1262Z" fill="#E1C9B7"/>
<path d="M469.241 311.304C487.079 302.507 495.225 306.389 509.442 318.166C506.169 321.65 500.446 324.145 495.858 325.305C487.192 327.496 478.055 324.51 471.709 318.401C470.338 317.094 469.1 315.65 468.021 314.093L467.743 312.554C468.327 311.416 467.898 311.872 469.241 311.304Z" fill="#A77F64"/>
<path d="M468.021 314.093L467.743 312.554C468.327 311.416 467.898 311.872 469.241 311.304C471.203 312.476 477.253 313.503 479.806 314.122C482.769 314.813 485.638 315.859 488.352 317.24C482.825 316.429 473.115 314.512 468.021 314.093Z" fill="#E1C9B7"/>
<path d="M560.647 243.448C579.073 235.207 586.519 237.894 601.175 250.773C593.919 255.905 586.259 259.343 577.195 257.83C570.909 256.781 562.598 251.979 559.8 246.091L559.448 244.867C559.765 243.672 559.434 244.17 560.647 243.448Z" fill="#A77F64"/>
<path d="M559.8 246.091L559.448 244.868C559.765 243.672 559.434 244.17 560.647 243.448C564.437 245.358 573.785 246.314 579.79 249.143L580.345 249.398C575.803 249.121 564.799 247.199 560.345 245.91L559.8 246.091Z" fill="#E1C9B7"/>
<path d="M533.296 183.68C539.712 181.137 550.42 179.839 556.991 182.91C564.704 186.512 566.965 190.599 572.358 196.198C556.798 205.262 540.935 202.161 531.591 186.353C531.78 185.626 532.832 184.279 533.296 183.68Z" fill="#A77F64"/>
<path d="M531.591 186.353C531.78 185.626 532.832 184.279 533.296 183.68C538.762 186.832 544.472 187.196 551.626 191.96C547.453 191.255 533.201 185.898 531.591 186.353Z" fill="#E7CEB2"/>
<path d="M496.73 297.209C512.845 288.894 524.619 291.624 536.773 304.618C528.933 309.773 521.909 313.267 512.265 311.293C505.825 309.975 499.532 305.707 495.759 300.352C495.26 299.789 495.471 299.976 495.309 299.014C495.728 297.858 495.728 297.95 496.73 297.209Z" fill="#A77F64"/>
<path d="M495.759 300.352C495.26 299.789 495.471 299.976 495.309 299.014C495.728 297.858 495.728 297.95 496.73 297.208C502.063 298.888 511.534 300.549 516.305 302.752C512.399 302.732 496.863 299.987 495.759 300.352Z" fill="#E1C9B7"/>
<path d="M601.084 329.573C606.892 325.936 617.428 323.4 624.21 325.005C631.273 326.675 636.687 331.625 641.921 336.344C627.627 347.074 612.358 346.884 600.859 332.3L600.49 331.905C600.595 330.961 600.571 330.372 601.084 329.573Z" fill="#A77F64"/>
<path d="M600.859 332.3L600.49 331.905C600.595 330.961 600.571 330.372 601.084 329.573C605.531 330.3 615.329 331.912 619.038 334.206L618.961 334.52C613.691 335.269 606.368 331.743 600.859 332.3Z" fill="#E1C9B7"/>
<path d="M440.216 208.348C448.376 212.569 455.889 217.882 458.286 227.346C459.875 233.617 459.253 240.936 455.934 246.564C455.193 247.542 455.27 247.554 454.198 248.102C453.477 247.947 453.677 248.136 453.421 247.816C437.491 234.141 435.456 229.097 440.216 208.348Z" fill="#A77F64"/>
<path d="M449.585 227.875C451.287 231.768 454.546 242.248 455.934 246.564C455.193 247.542 455.27 247.554 454.198 248.102C453.477 247.947 453.677 248.136 453.421 247.816C453.333 246.201 451.772 241.604 451.262 239.753C450.011 235.193 449.705 232.542 449.585 227.875Z" fill="#E1C9B7"/>
<path d="M505.986 395.562C506.89 394.806 507.276 394.444 508.37 394.712C524.538 404.264 530.132 411.63 527.059 431.393C519.701 429.512 511.861 424.811 507.818 418.17C504.323 412.439 503.082 401.666 505.986 395.562Z" fill="#A77F64"/>
<path d="M505.986 395.562C506.89 394.806 507.277 394.444 508.37 394.712C508.198 395.91 511.639 402.309 512.381 404.247C513.854 408.118 514.382 409.57 514.983 413.687C511.794 408.293 508.89 400.277 505.986 395.562Z" fill="#E7CEB2"/>
<path d="M589.971 302.5C595.171 298.78 605.813 296.328 612.253 297.421C618.785 298.529 626.857 304.215 630.875 309.261C623.697 314.131 615.428 317.864 606.691 315.992C600.072 314.573 593.866 310.718 589.992 305.171C589.736 303.717 589.391 303.443 589.971 302.5Z" fill="#A77F64"/>
<path d="M589.992 305.171C589.736 303.717 589.391 303.443 589.971 302.5C593.793 302.9 606.544 304.691 608.836 308.129C607.574 308.895 594.373 303.932 590.502 304.58L589.992 305.171Z" fill="#E5D4C3"/>
<path d="M548.265 168.725C553.412 150.163 561.8 145.353 580.236 144.132C577.023 163.054 569.777 171.947 549.738 171.898C548.578 171.647 548.638 171.691 547.661 171.032C547.439 169.813 547.569 170.111 548.265 168.725Z" fill="#A77F64"/>
<path d="M548.265 168.725L548.972 168.838C553.697 165.011 560.257 160.912 565.682 158.027C561.969 162.065 550.48 169.503 549.738 171.898C548.578 171.647 548.638 171.691 547.661 171.032C547.439 169.813 547.569 170.111 548.265 168.725Z" fill="#E5CCB7"/>
<path d="M540.295 271.949C558.2 264.726 566.757 264.663 581.175 278.867C567.573 289.967 550.097 289.142 539.729 274.293C539.785 272.759 539.518 272.858 540.295 271.949Z" fill="#A77F64"/>
<path d="M539.729 274.293C539.785 272.759 539.518 272.858 540.295 271.949C544.901 273.014 550.944 274.284 555.441 275.667C554.252 276.39 552.885 276.289 551.468 276.359C547.453 276.034 543.667 275.133 539.729 274.293Z" fill="#E1C9B7"/>
<path d="M555.441 275.667C557.554 275.865 558.752 276.322 560.728 277.051C558.348 277.037 553.774 276.951 551.468 276.359C552.885 276.289 554.252 276.39 555.441 275.667Z" fill="#E7CEB2"/>
<path d="M384.304 84.6775C391.11 89.0031 398.004 93.3375 400.992 101.256C403.288 107.342 403.024 118.213 399.118 123.355C398.275 124.127 398.208 124.34 397.086 124.555C396.267 124.271 396.461 124.52 396.134 123.981C381.21 111.153 378.594 104.132 384.304 84.6775Z" fill="#A77F64"/>
<path d="M392.66 103.969C395.181 109.679 396.404 117.046 399.118 123.355C398.275 124.127 398.208 124.34 397.086 124.555C396.267 124.271 396.461 124.519 396.134 123.981C396.531 122.865 394.066 115.132 393.729 112.904C393.254 109.769 392.948 107.138 392.66 103.969Z" fill="#E7CEB2"/>
<path d="M502.425 200.244C508.096 197.293 519.195 196.142 525.421 198.186C532.146 200.393 538.457 206.702 542.384 212.382C537.497 214.886 531.313 216.959 525.79 217.249C516.755 217.724 506.095 210.666 502.295 202.575C502.372 202.105 502.4 200.787 502.425 200.244Z" fill="#A77F64"/>
<path d="M502.295 202.575C502.372 202.105 502.4 200.787 502.425 200.244C503.743 200.773 503.36 200.554 504.594 200.747C508.802 201.405 514.178 203.763 517.813 205.802C517.127 206.039 516.364 206.336 515.665 206.5C512.17 205.126 505.842 203.341 502.295 202.575Z" fill="#E7CEB2"/>
<path d="M517.813 205.802C519.585 206.63 520.471 207.431 521.975 208.63C519.757 207.966 517.844 207.292 515.665 206.5C516.364 206.335 517.127 206.039 517.813 205.802Z" fill="#C8A486"/>
<path d="M496.656 169.987C497.398 163.973 498.073 157.969 501.553 152.803C505.906 146.341 514.262 142.252 521.638 140.458C521.968 149.245 522.313 159.125 515.732 165.879C511.492 170.228 504.977 175.079 498.582 174.622C497.644 174.178 497.633 174.124 496.835 173.435C496.227 172.177 496.484 171.448 496.656 169.987Z" fill="#A77F64"/>
<path d="M503.624 164.853C503.888 165.695 504.123 166.368 504.274 167.247C502.267 169.607 500.541 171.546 498.386 173.77L498.582 174.622C497.644 174.178 497.633 174.124 496.835 173.435C496.227 172.177 496.484 171.448 496.656 169.987C497.208 170.712 497.194 170.826 497.978 171.243L503.624 164.853Z" fill="#E7CEB2"/>
<path d="M496.656 169.987C497.208 170.712 497.194 170.826 497.978 171.243C497.338 172.374 497.426 171.792 497.668 173.042L498.386 173.77L498.582 174.622C497.644 174.178 497.633 174.124 496.835 173.435C496.227 172.177 496.484 171.448 496.656 169.987Z" fill="#BBA89D"/>
<path d="M503.624 164.852C505.642 161.966 507.284 160.366 510.23 158.514C508.975 160.549 505.856 165.476 504.274 167.246C504.123 166.368 503.887 165.695 503.624 164.852Z" fill="#C8A486"/>
<path d="M584.997 383.826C585.197 382.937 585.127 382.926 585.728 382.272L586.459 382.41C595.93 383.978 604.276 385.359 610.267 393.812C613.431 398.27 615.786 404.918 616.535 410.315C607.335 410.192 598.546 409.401 591.841 402.348C587.999 398.305 583.358 389.322 584.997 383.826Z" fill="#A77F64"/>
<path d="M584.997 383.826C585.197 382.937 585.127 382.926 585.728 382.272L586.459 382.41C591.711 387.174 596.268 391.702 599.569 398.041C595.758 394.736 592.144 391.157 588.53 387.638C587.373 386.516 585.992 384.765 584.997 383.826Z" fill="#E7CEB2"/>
<path d="M455.066 168.28C458.666 170.683 463.44 175.906 465.768 179.638C471.509 188.847 468.643 200.524 463.156 209.226C461.813 209.281 461.468 209.277 460.136 209.134C453.874 201.426 448.348 194.663 449.504 184.063C450.053 179.056 452.363 172.534 455.066 168.28Z" fill="#A77F64"/>
<path d="M460.308 187.304C461.06 195.148 461.974 201.467 463.156 209.226C461.813 209.281 461.468 209.277 460.136 209.134C460.28 208.865 460.526 208.464 460.491 208.155C459.735 201.055 459.088 194.42 460.308 187.304Z" fill="#EFD7C3"/>
<path d="M547.214 135.927C547.541 145.656 547.959 154.805 540.756 162.473C536.263 167.256 530.849 169.306 524.612 170.65L524.014 170.754C522.664 169.937 522.285 169.46 522.345 167.82C523.125 150.057 529.625 140.566 547.214 135.927Z" fill="#A77F64"/>
<path d="M522.345 167.82L523.051 168.022C527.136 162.411 531.032 158.191 535.968 153.371C533.929 158.795 530.336 162.233 526.943 166.787C526.099 167.918 524.243 169.49 524.612 170.65L524.014 170.754C522.664 169.937 522.285 169.46 522.345 167.82Z" fill="#E7CEB2"/>
<path d="M393.448 241.452C396.067 237.922 402.131 232.783 405.925 230.659C413.898 226.191 425.095 227.96 433.125 231.627C428.987 238.393 422.775 245.93 414.689 247.685C407.704 249.2 399.48 247.857 393.363 244.203L393.704 243.419C393.56 242.757 393.437 242.131 393.448 241.452Z" fill="#A77F64"/>
<path d="M393.448 241.452C394.168 241.717 404.265 239.643 406.6 239.435C407.682 239.512 409.359 239.492 410.196 240.026C406.35 240.908 396.787 242.887 393.363 244.203L393.704 243.419C393.56 242.757 393.437 242.131 393.448 241.452Z" fill="#E1C9B7"/>
<path d="M406.6 239.435C409.018 238.95 410.221 238.786 412.622 239.33C412.211 239.897 410.934 239.972 410.196 240.026C409.359 239.492 407.682 239.512 406.6 239.435Z" fill="#E7CEB2"/>
<path d="M504.78 217.246C510.061 221.983 515.169 229.806 515.507 237.097C515.858 244.682 512.884 253.593 506.682 258.335L506.535 258.495C505.645 258.465 505.206 258.42 504.344 258.724L503.965 258.456C500.326 251.585 496.041 245.811 496.375 237.623C496.712 229.409 500.449 223.955 504.78 217.246Z" fill="#A77F64"/>
<path d="M506.58 237.237C507.396 243.974 506.774 250.647 506.345 257.375C506.324 257.7 506.542 258.052 506.682 258.335L506.535 258.495C505.645 258.465 505.206 258.42 504.345 258.724L503.965 258.456C504.844 251.582 504.668 243.901 506.58 237.237Z" fill="#E1C9B7"/>
<path d="M599.854 363.065C605.69 360.295 615.009 359.704 621.123 361.887C628.97 364.69 633.86 371.335 638.564 377.835C621.682 385.124 608.147 381.763 599.242 365.242L598.954 364.419C599.207 363.315 598.926 363.758 599.854 363.065Z" fill="#A77F64"/>
<path d="M599.242 365.242L598.954 364.419C599.207 363.315 598.926 363.758 599.854 363.065C600.715 363.382 601.088 363.343 601.798 363.543C606.941 364.992 613.09 368.047 617.347 371.25C613.062 370.368 600.69 364.732 599.242 365.242Z" fill="#E7CEB2"/>
<path d="M372.962 272.074C378.91 265.466 385.513 258.837 394.931 258.412C400.342 258.168 407.978 259.376 412.759 261.958C402.3 278.583 391.11 282.809 372.607 274.881C372.765 274.378 373.169 274.035 373.542 273.699L372.962 272.074Z" fill="#A77F64"/>
<path d="M376.727 271.208C382.342 269.748 386.617 269.12 392.414 269.671C390.695 270.185 380.461 272.866 378.629 273.143C378.38 272.144 377.589 271.596 376.727 271.208Z" fill="#E7CEB2"/>
<path d="M372.962 272.074C374.646 272.06 375.096 271.792 376.727 271.208C377.589 271.596 378.38 272.145 378.629 273.143L372.607 274.881C372.765 274.378 373.169 274.035 373.542 273.699L372.962 272.074Z" fill="#E1C9B7"/>
<path d="M587.981 277.512C594.9 259.887 602.747 255.925 621.25 255.561C620.03 263.613 616.732 271.815 609.993 276.839C604.656 280.817 594.925 283.03 588.523 280.882C588.017 279.911 587.468 278.568 587.981 277.512Z" fill="#A77F64"/>
<path d="M587.981 277.512L588.41 278.296C591.954 275.849 600.736 270.901 604.934 269.452C602.35 272.011 591.82 279.157 588.523 280.882C588.017 279.911 587.468 278.568 587.981 277.512Z" fill="#E1C9B7"/>
<path d="M426.6 123.405C434.714 107.319 445.489 102.674 463.096 105.67C459.569 114.341 455.91 122.126 446.808 125.986C441.053 128.427 432.499 128.797 426.744 126.421L426.171 125.518C426.108 123.981 425.918 124.649 426.6 123.405Z" fill="#A77F64"/>
<path d="M426.6 123.405C428.347 123.638 437.59 118.605 440.332 118.153C441.52 117.957 444.059 117.19 445.486 116.936C439.246 120.358 432.9 123.141 426.744 126.421L426.171 125.518C426.108 123.981 425.918 124.649 426.6 123.405Z" fill="#E1C9B7"/>
<path d="M127.108 261.509C127.253 261.268 127.401 261.029 127.552 260.793C131.703 254.342 137.855 247.664 145.629 246.21C152.241 244.973 159.593 245.72 165.262 249.457C165.932 250.837 166.199 251.135 166.209 252.612L165.801 253.262C153.227 265.552 144.084 269.488 127.108 261.509Z" fill="#C8A486"/>
<path d="M165.263 249.458C165.933 250.838 166.199 251.135 166.209 252.612L165.802 253.262C164.667 252.686 149.355 255.389 146.366 255.623C153.179 251.743 161.637 251.848 165.263 249.458Z" fill="#E7CEB2"/>
<path d="M273.913 116.041C279.952 121.483 285.53 127.68 285.854 136.21C286.137 143.678 284.191 150.042 279.232 155.65C278.32 156.799 278.883 156.49 277.572 156.753C276.279 156.2 276.31 156.087 275.456 155.015C272.859 152.09 270.488 147.783 268.891 144.207C264.596 134.592 268.747 124.505 273.913 116.041Z" fill="#C8A486"/>
<path d="M275.456 155.015C276.68 152.909 275.28 142.628 277.207 139.167L277.518 139.337C278.656 143.866 278.749 154.463 279.232 155.65C278.32 156.799 278.883 156.49 277.572 156.753C276.279 156.201 276.31 156.087 275.456 155.015Z" fill="#E1C9B7"/>
<path d="M304.455 105.752C309.552 107.512 314.651 111.009 318.293 114.996C324.065 121.312 325.314 134.22 321.481 141.718C320.501 142.57 319.095 143.141 317.903 143.713C316.897 142.868 316.76 142.669 315.95 141.685C302.484 130.015 300.768 123.357 304.455 105.752Z" fill="#C8A486"/>
<path d="M314.176 123.305C315.393 126.528 319.538 140.524 321.481 141.718C320.501 142.57 319.095 143.141 317.902 143.713C316.897 142.868 316.76 142.668 315.95 141.685C316.457 141.291 316.976 141.148 316.884 140.515C316.003 134.499 314.497 129.486 314.176 123.305Z" fill="#E1C9B7"/>
<path d="M219.746 122.417C222.822 127.21 227.727 130.947 229.727 136.403C232.755 144.665 230.603 156.071 224.418 162.393L223.826 163.022C221.415 163.73 220.686 162.869 219.62 160.786C214.628 152.806 210.636 146.716 212.995 136.896C214.302 131.456 216.571 127.013 219.746 122.417Z" fill="#C8A486"/>
<path d="M219.62 160.786L220.969 161.146L221.293 160.854C220.809 157.911 220.97 146.881 221.59 143.954L221.965 143.553C224.116 145.792 223.246 160.441 224.419 162.393L223.827 163.022C221.415 163.73 220.686 162.869 219.62 160.786Z" fill="#E7CEB2"/>
<path d="M343.44 168.936C342.577 154.357 345.204 145.562 358.235 138.436C360.014 137.462 361.1 136.348 363.217 135.768C365.896 136.356 365.266 140.868 365.523 143.23C367.063 157.391 359.181 166.787 346.191 171.061C345.528 171.372 345.787 171.234 344.891 171.167C343.915 170.352 343.896 170.097 343.44 168.936Z" fill="#C8A486"/>
<path d="M352.793 156.482L353.841 157.223C352.547 159.622 345.919 169.649 345.513 170.767L346.191 171.061C345.528 171.372 345.787 171.234 344.891 171.167C343.915 170.352 343.896 170.097 343.44 168.936C344.562 167.769 344.998 166.518 345.931 165.3C348.193 162.347 350.519 159.428 352.793 156.482Z" fill="#E1C9B7"/>
<path d="M352.793 156.482C353.363 155.316 353.886 153.89 355.039 153.391C355.834 154.538 354.509 156.123 353.841 157.223L352.793 156.482Z" fill="#C8A486"/>
<path d="M339.778 142.779C337.251 138.006 337.082 128.224 338.676 123.004C341.155 114.885 347.711 110.755 353.841 105.607C357.233 112.729 359.297 120.781 356.604 128.488C354.305 135.065 348.765 141.266 342.386 144.052L341.729 144.169C340.722 143.645 340.549 143.637 339.778 142.779Z" fill="#C8A486"/>
<path d="M346.493 128.4L347.151 129.701C346.136 132.272 342.059 141.688 341.643 143.464C341.853 143.64 342.164 143.928 342.386 144.052L341.729 144.168C340.722 143.645 340.549 143.637 339.778 142.779C340.24 141.902 340.516 140.329 341.042 139.147C342.693 135.435 344.56 131.967 346.493 128.4Z" fill="#E1C9B7"/>
<path d="M349.46 123.117C348.756 125.632 348.123 127.266 347.151 129.701L346.493 128.4C347.311 126.405 348.321 124.937 349.46 123.117Z" fill="#E1C9B7"/>
<path d="M160.985 190.169C172.003 193.728 181.577 201.595 182.117 213.841C182.312 218.273 182.343 221.673 180.2 225.748C179.246 226.736 179.806 226.399 178.429 226.742C177.594 226.397 177.523 226.549 177.139 226.003C161.178 216.459 158.408 208.522 160.985 190.169Z" fill="#C8A486"/>
<path d="M177.139 226.003C178.042 223.9 171.78 214.038 172.498 211.194L173.102 211.235C176.22 214.367 178.22 221.769 180.2 225.748C179.246 226.736 179.806 226.399 178.428 226.742C177.594 226.397 177.523 226.549 177.139 226.003Z" fill="#E7CEB2"/>
<path d="M176.176 148.638C193.727 147.143 204.495 152.224 209.015 169.926C209.286 171.449 209.463 171.101 208.915 172.252L206.8 173.281C204.644 174.02 202.405 173.193 200.243 172.905C185.608 170.954 180.095 161.874 176.176 148.638Z" fill="#C8A486"/>
<path d="M197.247 162.413C199.291 163.993 206.505 169.765 208.339 170.752L208.787 170.57L209.016 169.926C209.286 171.449 209.463 171.101 208.915 172.252L206.8 173.281L206.639 172.607C203.596 170.334 198.458 165.964 196.031 163.172L197.247 162.413Z" fill="#E7CEB2"/>
<path d="M196.031 163.171C194.883 162.092 194.663 161.986 194.02 160.598L194.204 160.217C195.382 160.357 196.329 161.533 197.247 162.413L196.031 163.171Z" fill="#E7CEB2"/>
<path d="M342.309 207.085C349.998 217.643 351.55 230.257 342.638 240.793C340.589 243.216 338.217 245.048 335.722 246.987C335.044 247.119 334.354 246.474 333.851 246.129C325.096 230.383 329.908 218.525 342.309 207.085Z" fill="#C8A486"/>
<path d="M339.924 226.851C339.454 229.687 335.437 246.082 335.722 246.987C335.044 247.119 334.354 246.474 333.852 246.129C334.64 240.451 337.149 231.912 339.924 226.851Z" fill="#E1C9B7"/>
<path d="M64.605 366.739C72.3868 351.163 87.3085 346.596 102.718 354.188C103.957 355.682 103.509 356.712 102.594 358.284C99.8586 361.898 94.1844 366.363 90.0532 368.318C82.4373 371.925 72.1456 369.51 64.605 366.739Z" fill="#C8A486"/>
<path d="M102.718 354.188C103.957 355.682 103.509 356.712 102.594 358.284L102.326 357.95C100.661 357.334 95.3777 358.916 93.1348 359.004C89.9907 359.127 86.9272 359.444 83.7424 359.099C86.0371 357.992 98.648 356.557 102.107 354.518C102.31 354.409 102.514 354.3 102.718 354.188Z" fill="#E7CEB2"/>
<path d="M223.803 251.422C235.102 239.642 251.635 239.032 263.247 250.61C263.36 252.111 263.129 253.323 263.38 254.679C261.787 255.802 259.575 256.611 257.811 257.469C245.122 263.639 234.102 260.867 223.803 251.422Z" fill="#C8A486"/>
<path d="M263.248 250.61C263.36 252.111 263.129 253.323 263.38 254.679C261.973 253.493 251.595 253.361 248.659 252.376C246.616 251.691 245.768 251.531 243.329 250.455C248.49 250.016 256.035 251.461 261.409 251.532C262.584 251.547 262.635 251.296 263.248 250.61Z" fill="#E1C9B7"/>
<path d="M231.094 151.428C236.904 149.959 245.816 149.13 251.542 151.211C260.445 154.447 263.611 160.261 267.474 168.093C267.277 169.267 266.611 169.832 265.545 170.742C260.616 172.387 251.616 171.679 246.761 169.645C239.038 166.411 234.143 158.882 231.094 151.428Z" fill="#C8A486"/>
<path d="M265.545 170.742C262.732 169.156 249.947 163.611 250.732 159.796C252.308 159.352 262.821 167.107 266.673 168.497L267.474 168.093C267.277 169.267 266.611 169.832 265.545 170.742Z" fill="#E7CEB2"/>
<path d="M307.459 229.865C300.694 213.419 303.479 202.373 316.774 190.781C319.951 194.804 322.035 200.369 322.785 205.432C324.242 215.281 318.82 224.104 311.275 230.024C311.048 230.201 310.819 230.374 310.587 230.543C309.133 230.797 308.596 230.765 307.459 229.865Z" fill="#C8A486"/>
<path d="M307.459 229.865C308.125 228.23 308.194 226.89 308.755 225.244C310.317 220.658 311.722 215.572 313.74 211.175C313.165 215.733 312.463 220.076 311.35 224.536C310.854 226.523 310.445 228.481 310.587 230.543C309.133 230.797 308.596 230.765 307.459 229.865Z" fill="#E7CEB2"/>
<path d="M64.1052 291.527C71.0134 286.075 82.8815 282.761 91.2793 286.395C95.9972 288.437 100.005 292.075 103.267 295.971C104.11 297.036 103.858 296.449 104.04 297.804C103.718 298.692 103.336 299.375 102.408 299.763C86.2248 307.521 75.8355 304.111 64.1052 291.527Z" fill="#C8A486"/>
<path d="M102.408 299.763C99.3544 297.638 86.7182 296.612 84.8176 294.467C86.6032 292.478 100.578 297.097 103.267 295.971C104.11 297.036 103.858 296.449 104.04 297.804C103.718 298.692 103.336 299.375 102.408 299.763Z" fill="#E7CEB2"/>
<path d="M91.9646 381.752C96.7427 373.722 103.101 367.474 112.639 366.254C118.226 365.54 125.825 366.518 130.383 369.981C131.223 371.208 131.037 370.558 131.058 371.967C130.5 372.885 130.717 372.748 129.939 373.381C126.283 377.878 120.781 382.884 115.13 384.607C107.957 386.79 98.5202 385.099 91.9646 381.752Z" fill="#C8A486"/>
<path d="M130.382 369.981C131.223 371.208 131.036 370.558 131.058 371.967C130.5 372.885 130.717 372.748 129.939 373.381L129.378 372.832C123.244 374.527 117.898 375.3 111.557 374.71C114.935 373.891 128.168 371.528 130.382 369.981Z" fill="#E1C9B7"/>
<path d="M204.656 210.962C219.233 200.058 231.062 197.396 244.925 211.257L245.26 211.654L244.905 213.874L244.317 214.224C229.123 224.819 218.19 221.283 204.656 210.962Z" fill="#C8A486"/>
<path d="M225.659 211.424C230.016 210.509 233.408 210.602 237.796 211.009C239.332 211.151 243.711 211.798 244.925 211.257L245.26 211.654L244.906 213.874L244.317 214.224C242.781 213.446 228.186 211.697 225.659 211.424Z" fill="#E7CEB2"/>
<path d="M155.009 422.009C160.218 420.895 159.926 424.906 159.387 428.661C158.592 434.339 157.451 439.318 153.781 443.906C149.473 449.289 141.533 453.642 134.703 454.429C134.013 435.749 137.483 428.612 155.009 422.009Z" fill="#C8A486"/>
<path d="M155.009 422.009C160.218 420.895 159.927 424.906 159.387 428.661C159.268 427.434 159.349 426.745 158.547 425.834C156.596 428.282 150.55 434.712 147.809 435.728C147.766 434.375 154.241 425.943 155.55 424.003L155.009 422.009Z" fill="#E1C9B7"/>
<path d="M155.009 422.009C160.218 420.895 159.926 424.906 159.387 428.661C159.268 427.434 159.349 426.745 158.547 425.834C158.745 424.358 158.735 423.95 157.682 422.987C156.303 423.043 156.809 422.93 155.55 424.003L155.009 422.009Z" fill="#E1C9B7"/>
<path d="M182.262 186.034C182.611 185.825 182.963 185.619 183.316 185.417C197.038 177.527 213.327 180.08 221.392 194.4C221.411 195.783 220.1 197.042 219.107 197.846C215.083 199.894 208.444 200.558 203.944 200.291C194.649 199.739 187.964 192.728 182.262 186.034Z" fill="#C8A486"/>
<path d="M201.453 188.124C204.526 189.293 218.745 195.393 221.392 194.4C221.411 195.783 220.1 197.042 219.106 197.846C217.629 195.802 207.038 194.249 201.453 188.124Z" fill="#E1C9B7"/>
<path d="M290.728 134.71C301.424 136.004 310.948 137.999 316.213 148.491C318.148 152.346 319.997 159.372 318.623 163.556C318.221 163.697 317.14 164.109 316.786 164.183C311.246 164.046 304.678 161.13 300.475 157.584C293.78 151.937 291.354 143.134 290.728 134.71Z" fill="#C8A486"/>
<path d="M306.557 149.512C310.567 153.044 315.922 158.942 318.623 163.556C318.221 163.697 317.14 164.109 316.785 164.183C316.513 163.18 308.498 154.392 306.557 149.512Z" fill="#E7CEB2"/>
<path d="M146.844 277.417C155.248 272.354 165.376 269.814 174.528 274.431C179.723 277.052 182.386 280.284 185.935 284.776C186.185 286.624 185.353 284.819 185.324 287.242L186.159 287.524L186.02 287.969C181.834 289.907 173.573 291.595 168.919 291.362C159.005 290.866 153.052 284.164 146.844 277.417Z" fill="#C8A486"/>
<path d="M185.324 287.242C181.863 287.56 169.463 284.301 168.745 281.076C170.773 279.627 181.788 286.414 185.935 284.776C186.185 286.624 185.353 284.819 185.324 287.242Z" fill="#E1C9B7"/>
<path d="M291.272 203.555C284.915 187.5 286.932 175.885 300.914 164.967C305.103 172.946 308.471 180.775 305.739 189.87C304.176 195.075 298.427 202.534 293.673 204.849L292.691 204.885C291.436 204.258 291.863 204.717 291.272 203.555Z" fill="#C8A486"/>
<path d="M297.134 186.301C296.771 191.924 295.453 198.369 293.836 203.809C293.639 204.47 293.715 204.016 293.673 204.849L292.691 204.886C291.436 204.258 291.863 204.717 291.272 203.555C293.688 198.827 294.24 191.896 297.134 186.301Z" fill="#E7CEB2"/>
<path d="M111.326 394.581C120.196 389.965 131.581 387.595 140.391 393.456C144.617 396.266 147.326 399.644 150.418 403.558C150.595 404.739 150.604 404.655 150.182 405.773C149.395 406.532 149.412 406.609 148.429 407.031C131.68 412.882 121.66 408.237 111.326 394.581Z" fill="#C8A486"/>
<path d="M148.429 407.031C148.428 406.831 148.428 406.631 148.427 406.43C145.341 405.179 136.889 402.907 134.941 400.569L135.027 399.964C137.015 399.518 146.713 403.431 150.419 403.558C150.595 404.739 150.605 404.655 150.182 405.773C149.395 406.532 149.412 406.609 148.429 407.031Z" fill="#E1C9B7"/>
<path d="M132.017 189.295C134.369 189.55 136.692 190.02 138.958 190.699C146.389 192.862 151.451 196.362 155.234 203.271C157.937 208.207 159.088 214.184 157.461 219.659C157.028 220.723 157.387 220.327 156.294 220.838C155.857 220.806 154.794 220.769 154.437 220.647C149.518 219.839 143.254 216.278 139.746 212.72C133.514 206.4 132.025 197.842 132.017 189.295Z" fill="#C8A486"/>
<path d="M154.438 220.647L154.794 220.061C152.848 217.364 145.595 207.791 146.995 205.17C148.218 205.996 149.433 208.805 150.366 210.012C152.993 213.408 155.419 215.203 156.698 219.403L157.461 219.659C157.028 220.723 157.387 220.327 156.294 220.837C155.857 220.806 154.794 220.769 154.438 220.647Z" fill="#E1C9B7"/>
<path d="M101.081 318.295C106.875 310.893 110.911 304.701 120.754 302.92C125.822 302.003 135.035 303.552 138.971 306.376C139.976 307.83 140.665 309.493 139.12 310.857C125.834 323.639 118.204 325.178 101.081 318.295Z" fill="#C8A486"/>
<path d="M138.971 306.376C139.976 307.83 140.665 309.493 139.12 310.857L138.645 310.349C135.802 309.999 124.217 312.543 122.866 311.25C127.286 308.125 135.727 308.779 138.971 306.376Z" fill="#E1C9B7"/>
<path d="M111.081 336.014C105.033 338.327 94.0521 337.65 88.4011 334.143C84.3746 331.645 77.3726 324.601 76.1685 320.073C77.4017 316.686 86.6883 317 89.6702 316.545C97.9133 315.285 112.494 325.833 112.492 334.419L111.081 336.014Z" fill="#C8A486"/>
<path d="M111.081 336.014C108.837 335.007 97.2611 329.027 96.2939 327.547C99.6468 326.63 109.719 332.129 112.492 334.419L111.081 336.014Z" fill="#E1C9B7"/>
<path d="M97.1965 271.434C102.594 268.649 112.232 266.363 118.253 267.935C127.184 270.267 131.106 274.734 135.79 282.147C134.312 282.505 134.192 282.244 133.569 283.184L133.899 284.105L134.614 284.503C132.569 286.886 118.809 287.29 115.126 286.312C106.986 284.15 101.497 278.339 97.1965 271.434Z" fill="#C8A486"/>
<path d="M133.899 284.104C131.363 283.824 117.702 278.274 116.89 276.71C119.947 274.842 131.388 281.631 135.79 282.147C134.312 282.505 134.192 282.244 133.569 283.184L133.899 284.104Z" fill="#E7CEB2"/>
<path d="M71.5659 405.882C79.3706 398.741 92.9043 396.192 101.992 402.127C104.093 403.498 110.288 407.632 110.827 410.101C109.75 410.603 109.51 410.322 108.083 410.143C106.831 410.67 106.404 410.575 106.098 412.112C108.451 412.323 110.255 412.667 112.571 413.1C92.5925 419.794 87.696 420.543 71.5659 405.882Z" fill="#C8A486"/>
<path d="M106.098 412.112C104.106 412.091 93.1746 409.046 91.9441 407.858C93.8218 407.197 105.508 409.665 108.083 410.143C106.831 410.67 106.404 410.575 106.098 412.112Z" fill="#E1C9B7"/>
<path d="M549.207 425.746L550.164 425.279C568.283 426.988 575.392 434.09 579.319 451.543C570.575 451.455 562.011 450.787 555.504 444.208C551.682 440.344 546.592 430.996 549.207 425.746Z" fill="#A77F64"/>
<path d="M549.208 425.746L550.164 425.279C555.335 430.082 559.593 434.241 563.643 440.112C559.948 437.307 551.166 430.679 549.626 426.53C549.422 425.978 549.443 426.105 549.208 425.746Z" fill="#E7CEB2"/>
<path d="M368.796 137.378C370.35 137.137 371.914 136.977 373.486 136.899C380.289 136.543 386.332 137.528 391.489 142.335C395.395 145.976 397.874 150.49 398.099 155.876C397.456 156.651 397.399 156.797 396.587 157.363C392.432 157.918 384.912 156.556 381.104 154.512C374.207 150.811 371.032 144.488 368.796 137.378Z" fill="#A77F64"/>
<path d="M383.551 146.078C389.233 148.259 393.641 151.805 398.099 155.876C397.456 156.651 397.399 156.797 396.587 157.364C395.49 156.521 393.792 155.662 392.544 154.739C389.046 152.151 386.339 149.369 383.551 146.078Z" fill="#C8A486"/>
<path d="M372.691 161.472C388.034 160.065 397.23 161.85 402.437 177.971C402.648 179.189 402.634 179.109 402.37 180.324C400.683 182.029 396.896 181.64 394.71 181.087C381.604 180.567 377.469 171.843 372.691 161.472Z" fill="#A77F64"/>
<path d="M386.16 169.635C390.973 170.963 393.831 172.791 397.867 175.716C399.041 176.566 400.644 178.002 401.843 178.646L402.437 177.971C402.648 179.189 402.634 179.109 402.37 180.325C400.683 182.029 396.896 181.64 394.71 181.087L400.739 181.086C397.135 179.308 389.412 172.477 386.16 169.635Z" fill="#C8A486"/>
<path d="M165.868 314.653C169.176 314.084 175.257 313.33 173.222 318.889C171.762 322.018 169.5 325.53 167.104 327.999C160.564 334.733 154.276 334.188 145.816 334.282C148.529 322.868 153.227 315.649 165.868 314.653Z" fill="#C8A486"/>
<path d="M165.868 314.653C169.176 314.084 175.257 313.33 173.222 318.889C172.91 318.831 172.598 318.773 172.287 318.715C168.327 320.455 162.674 323.299 158.524 324.092C161.052 321.796 169.62 317.771 170.007 315.101C169.07 314.545 167.118 314.688 165.868 314.653Z" fill="#E7CEB2"/>
<path d="M420.662 201.913C421.306 198.687 423.193 195.05 424.993 192.293C429.729 185.042 438.363 183.606 446.361 183.415C443.848 195.281 440.269 202.823 426.853 204.639C424.955 205.103 422.068 205.494 420.539 204.156C420.307 203.086 420.42 202.966 420.662 201.913Z" fill="#A77F64"/>
<path d="M432.84 194.644C431.772 195.865 422.712 204.653 422.782 204.485C424.357 204.688 425.25 204.659 426.853 204.639C424.955 205.103 422.068 205.494 420.539 204.156C420.307 203.086 420.42 202.966 420.662 201.914C421.706 201.682 429.905 196.04 432.257 194.926L432.84 194.644Z" fill="#E7CEB2"/>
<path d="M563.291 409.496C575.736 401.212 581.091 400.886 594.148 408.097C589.011 412.942 584.153 418.106 576.439 417.607C571.975 417.319 565.443 415.772 562.873 411.873C562.753 411.029 562.76 410.811 562.781 409.953L563.291 409.496Z" fill="#A77F64"/>
<path d="M562.873 411.873C562.753 411.029 562.76 410.811 562.781 409.953L563.291 409.496C565.907 410.424 572.78 410.125 576.264 410.716L576.401 410.983C572.632 411.563 566.729 411.785 562.873 411.873Z" fill="#E1C9B7"/>
<path d="M542.763 229.372C543.087 214.888 546.307 211.855 558.731 205.356C561.143 218.168 559.501 227.748 545.98 232.996C544.862 232.985 544.444 233.078 543.47 232.516C542.721 231.528 542.833 230.643 542.763 229.372Z" fill="#A77F64"/>
<path d="M542.763 229.372L543.508 229.626C544.191 229.125 548.729 222.773 550.22 221.386L550.617 221.581C550.03 226.456 546.092 230.615 545.98 232.996C544.862 232.984 544.444 233.078 543.47 232.516C542.721 231.527 542.833 230.643 542.763 229.372Z" fill="#C8A486"/>
<path d="M146.619 305.418C138.028 302.46 129.477 299.389 120.968 296.204C119.279 295.564 113.885 293.644 112.584 292.767L112.585 292.211C113.668 291.818 114.027 291.869 115.297 292.224C124.193 294.709 138.836 301.442 147.59 302.812L148.087 302.887C146.993 304.684 148.237 305.158 146.619 305.418Z" fill="#A77F64"/>
<path d="M328.293 186.268C326.414 184.681 316.796 178.371 316.62 176.997C318.95 176.38 326.792 182.153 329.62 183.756C329.487 185.173 329.649 185.547 328.293 186.268Z" fill="#916F49"/>
<path d="M266.591 275.653C267.787 273.653 269.123 271.121 270.802 269.59L271.405 269.442C271.819 271.751 269.884 274.746 269.03 276.959L268.595 277.032C267.461 276.477 267.484 276.525 266.591 275.653Z" fill="#A77F64"/>
<path d="M290.332 570.049L291.435 570.76C291.414 571.733 291.376 571.804 291.126 572.757C286.987 574.873 283.895 576.385 279.453 577.76C284.018 575.017 286.403 573.579 290.332 570.049Z" fill="#A77F64"/>
<path d="M431.223 102.43C433.54 100.85 434.581 100.41 437.27 99.4421L432.974 104.156C432.091 103.504 431.93 103.248 431.223 102.43Z" fill="#A77F64"/>
<path d="M612.766 353.509C614.25 353.027 615.997 352.391 617.505 352.106L617.481 352.117L618.096 352.201C616.771 353.164 615.48 353.586 613.962 354.208L612.766 353.509Z" fill="#816764"/>
<path d="M597.741 431.47C599.351 431.73 601.256 431.987 602.817 432.377C600.353 432.434 597.544 432.564 595.115 432.42C596.317 431.969 596.457 432.202 597.741 431.47Z" fill="#676667"/>
<path d="M169.823 262.309L175.615 262.597L174.339 263.732L169.823 262.309Z" fill="#BBA89D"/>
<path d="M112.49 419.917L112.333 421.358C111.355 421.077 110.514 420.785 109.561 420.451C110.07 420.012 111.655 420.005 112.49 419.917Z" fill="#BBA89D"/>
<path d="M580.292 316C581.393 316.003 582.476 315.859 583.39 316.375C582.426 317.048 582.317 316.927 581.115 317.17L580.292 316Z" fill="#816764"/>
<path d="M151.231 394.487C150.078 394.536 150.052 394.617 148.999 394.216C149.837 393.601 150.242 393.794 151.481 393.703L151.231 394.487Z" fill="#CFCBCC"/>
<path d="M325.884 600.5C332.483 599.727 330.05 613.871 329.389 617.479C327.884 625.333 324.57 634.348 318.684 640.114C303.988 654.504 294.421 667.404 284.411 685.413C280.263 685.093 275.724 683.757 271.662 682.695C269.426 682.129 265.723 681.383 263.826 680.406L263.703 679.882C265.042 676.37 268.161 672.07 269.99 668.698C278.206 653.337 288.99 640.117 299.281 626.223C308.29 614.061 312.063 607.694 325.884 600.5Z" fill="#C49E7F"/>
<path d="M355.996 601.861C356.607 603.021 356.439 608.707 356.47 610.51C356.527 617.83 357.1 625.136 358.182 632.376C359.508 641.204 361.385 649.937 363.804 658.527C366.799 669.317 371.173 682.888 373.004 693.777C370.016 694.136 365.569 694.041 362.461 694.065L347.027 694.041C346.255 683.025 345.018 671.697 345.028 660.636C345.041 644.572 347.8 615.51 355.996 601.861Z" fill="#C49E7F"/>
<path d="M379.948 614.04C382.781 614.29 384.096 618.291 385.095 620.738C389.169 630.519 392.133 640.807 395.803 650.714C400.862 664.381 405.865 676.261 408.414 690.76L403.158 691.291C399.308 691.425 391.753 692.469 387.665 692.965C377.237 670.386 375.258 643.929 378.225 619.493C378.454 617.602 378.921 615.654 379.948 614.04Z" fill="#C49E7F"/>
<path d="M399.677 617.486C404.775 619.968 411.68 622.812 416.31 625.467C422.764 645.683 426.136 665.653 429.634 686.576C425.855 687.392 422.068 688.176 418.278 688.921L413.279 689.723C412.052 684.875 408.125 666.778 411.265 662.837C413.149 662.299 417.171 664.286 419.238 665.119C416.035 657.068 414.344 656.273 408.955 649.832C402.493 642.104 400.236 627.474 399.677 617.486Z" fill="#C49E7F"/>
<path d="M274.783 618.586L274.743 619.128C268.062 627.081 259.562 625.871 251.597 630.948C244.17 635.687 244.292 652.624 243.124 660.499C242.474 664.887 241.852 668.579 240.988 672.988C237.053 671.054 230.833 668.691 226.689 666.968C225.605 666.525 219.919 664.398 220.157 663.319C221.845 655.654 226.067 645.318 230.004 638.539C239.596 622.021 258.136 622.317 274.783 618.586Z" fill="#C49E7F"/>
<path d="M217.78 625.91L218.172 625.875C218.279 626.026 218.386 626.18 218.493 626.335C217.955 637.02 217.136 652.11 217.165 662.408C208.343 658.98 195.852 651.86 187.416 646.97C181.184 643.169 175.051 639.203 169.026 635.083C183.187 634.408 204.054 629.032 217.78 625.91Z" fill="#C49E7F"/>
<path d="M441.257 635.68C463.714 639.713 477.01 651.147 493.372 665.924C491.505 666.852 488.946 667.872 486.984 668.716C480.473 671.518 473.825 673.99 467.065 676.124C463.148 668.283 458.578 661.002 454.373 653.372C450.299 645.985 446.92 641.791 441.257 635.68Z" fill="#C49E7F"/>
<path d="M486.731 639.136C501.775 641.032 519.827 642.041 535.159 643.507C530.181 647.374 526.707 649.185 521.202 652.219C511.042 657.426 504.809 661.051 493.945 665.636C491.734 656.807 488.935 648.098 486.731 639.136Z" fill="#C49E7F"/>
<path d="M260.274 639.277C263.683 639.228 268.02 639.949 271.5 640.378C269.64 651.611 266.429 656.93 261.405 666.856C259.7 670.224 258.44 674.123 256.459 677.6C255.345 678.107 255.97 677.984 254.432 677.481C250.376 676.057 246.302 674.689 242.21 673.378C244.039 666.195 246.499 659.775 249.563 653.052C252.38 646.871 252.643 641.246 260.274 639.277Z" fill="#C49E7F"/>
<path d="M438.23 653.499C438.863 653.471 439.601 653.404 440.223 653.559C444.6 654.638 454.163 674.327 457.344 678.912L457.675 679.383C454.5 680.248 451.223 681.253 448.052 682.178C442.666 683.525 437.618 684.769 432.183 685.852C432.837 680.424 436.307 657.894 438.23 653.499Z" fill="#C49E7F"/>
<path d="M331.193 663.945C332.587 664.402 333.585 666.188 333.873 667.524C335.676 675.881 338.836 685.409 340.194 693.724C337.912 693.506 335.494 693.376 333.196 693.218C329.56 692.93 326.841 692.638 323.215 692.1C323.943 683.82 325.069 669.651 331.193 663.945Z" fill="#C49E7F"/>
<path d="M315.2 667.935C315.577 670.22 313.319 678.613 312.97 681.577C312.516 685.437 312.449 686.924 312.5 691.027C309.301 690.493 305.937 690.096 302.713 689.663C301.842 689.442 301.859 689.505 301.227 688.886C301.763 686.292 312.873 670.779 315.2 667.935Z" fill="#C49E7F"/>
<path d="M332.5 571.5C372.527 554.855 383.138 480.884 383.493 444.994C384.817 507.266 452.904 560.07 487.5 579C451.5 559.4 369.167 565.833 332.5 571.5Z" fill="#C49E7F"/>
</svg>
